<svg id="visual" viewBox="0 0 960 540" width="960" height="540" xmlns="http://www.w3.org/2000/svg" xmlns:xlink="http://www.w3.org/1999/xlink" version="1.1"><rect x="0" y="0" width="960" height="540" fill="#25064c"></rect><defs><linearGradient id="grad1_0" x1="43.8%" y1="0%" x2="100%" y2="100%"><stop offset="14.444444444444446%" stop-color="#36175e" stop-opacity="1"></stop><stop offset="85.55555555555554%" stop-color="#36175e" stop-opacity="1"></stop></linearGradient></defs><defs><linearGradient id="grad1_1" x1="43.8%" y1="0%" x2="100%" y2="100%"><stop offset="14.444444444444446%" stop-color="#36175e" stop-opacity="1"></stop><stop offset="85.55555555555554%" stop-color="#2e0f55" stop-opacity="1"></stop></linearGradient></defs><defs><linearGradient id="grad1_2" x1="43.8%" y1="0%" x2="100%" y2="100%"><stop offset="14.444444444444446%" stop-color="#25064c" stop-opacity="1"></stop><stop offset="85.55555555555554%" stop-color="#2e0f55" stop-opacity="1"></stop></linearGradient></defs><defs><linearGradient id="grad2_0" x1="0%" y1="0%" x2="56.3%" y2="100%"><stop offset="14.444444444444446%" stop-color="#36175e" stop-opacity="1"></stop><stop offset="85.55555555555554%" stop-color="#36175e" stop-opacity="1"></stop></linearGradient></defs><defs><linearGradient id="grad2_1" x1="0%" y1="0%" x2="56.3%" y2="100%"><stop offset="14.444444444444446%" stop-color="#2e0f55" stop-opacity="1"></stop><stop offset="85.55555555555554%" stop-color="#36175e" stop-opacity="1"></stop></linearGradient></defs><defs><linearGradient id="grad2_2" x1="0%" y1="0%" x2="56.3%" y2="100%"><stop offset="14.444444444444446%" stop-color="#2e0f55" stop-opacity="1"></stop><stop offset="85.55555555555554%" stop-color="#25064c" stop-opacity="1"></stop></linearGradient></defs><g transform="translate(960, 0)"><path d="M0 486C-41.6 448.7 -83.2 411.5 -129.2 397.5C-175.2 383.6 -225.6 392.9 -276.3 380.2C-326.9 367.6 -377.9 332.8 -393.2 285.7C-408.5 238.5 -388 178.9 -397.5 129.2C-407.1 79.5 -446.5 39.7 -486 0L0 0Z" fill="#290a50"></path><path d="M0 324C-27.7 299.2 -55.4 274.3 -86.1 265C-116.8 255.7 -150.4 262 -184.2 253.5C-218 245 -251.9 221.9 -262.1 190.4C-272.3 159 -258.7 119.2 -265 86.1C-271.4 53 -297.7 26.5 -324 0L0 0Z" fill="#321359"></path><path d="M0 162C-13.9 149.6 -27.7 137.2 -43.1 132.5C-58.4 127.9 -75.2 131 -92.1 126.7C-109 122.5 -126 110.9 -131.1 95.2C-136.2 79.5 -129.3 59.6 -132.5 43.1C-135.7 26.5 -148.8 13.2 -162 0L0 0Z" fill="#36175e"></path></g><g transform="translate(0, 540)"><path d="M0 -486C53.3 -485.8 106.5 -485.6 150.2 -462.2C193.8 -438.9 227.8 -392.4 256.3 -352.7C284.7 -313 307.6 -280.1 342.2 -248.6C376.8 -217.1 423 -187.1 448.9 -145.9C474.8 -104.7 480.4 -52.3 486 0L0 0Z" fill="#290a50"></path><path d="M0 -324C35.5 -323.9 71 -323.7 100.1 -308.1C129.2 -292.6 151.9 -261.6 170.8 -235.2C189.8 -208.7 205.1 -186.8 228.1 -165.8C251.2 -144.8 282 -124.7 299.3 -97.2C316.5 -69.8 320.3 -34.9 324 0L0 0Z" fill="#321359"></path><path d="M0 -162C17.8 -161.9 35.5 -161.9 50.1 -154.1C64.6 -146.3 75.9 -130.8 85.4 -117.6C94.9 -104.3 102.5 -93.4 114.1 -82.9C125.6 -72.4 141 -62.4 149.6 -48.6C158.3 -34.9 160.1 -17.4 162 0L0 0Z" fill="#36175e"></path></g></svg>