<?xml version="1.0" encoding="UTF-8"?>
<svg id="Layer_1" data-name="Layer 1" xmlns="http://www.w3.org/2000/svg" viewBox="0 0 490 490">
  <defs>
    <style>
      .cls-1 {
        fill: #7e5ea8;
      }

      .cls-2 {
        fill: none;
        stroke: #553285;
        stroke-dasharray: 0 0 71.81 71.81;
        stroke-miterlimit: 10;
        stroke-width: 170px;
      }

      .cls-3 {
        fill: #422767;
      }

      .cls-4 {
        fill: #9768d1;
      }
    </style>
  </defs>
  <circle class="cls-4" cx="245" cy="245" r="245"/>
  <g>
    <circle class="cls-3" cx="245" cy="245" r="160"/>
    <circle class="cls-2" cx="245" cy="245" r="160"/>
  </g>
  <circle class="cls-3" cx="245" cy="245" r="162.5"/>
  <path class="cls-1" d="m353.98,142.87l-103.77,136.86-21.05,70.82h-36.09l22.7-72.73-12.03-93.52c-1.09-7.56-3.01-12.8-5.74-15.72-2.37-2.46-5.79-3.69-10.25-3.69-3.74,0-7.57.32-11.48.96l7.25-24.88c8.02-1,13.54-1.5,16.54-1.5,13.95,0,23.74,3.46,29.39,10.39,4.46,5.56,7.2,14.45,8.2,26.66l6.7,66.86,70.55-100.49h39.1Z"/>
</svg>